<?xml version="1.0" encoding="utf-8"?>
<svg viewBox="0 0 1080 1080" xmlns="http://www.w3.org/2000/svg">
  <defs>
    <clipPath id="clip-2">
      <rect width="1080" height="1080" style="fill: rgb(67, 224, 179); stroke: rgb(28, 73, 66);" transform="matrix(-0.000001, 1, -1, -0.000001, 557.325317, 537.196594)"/>
    </clipPath>
    <clipPath id="clip-1">
      <rect width="1080" height="1080" style="fill: rgb(67, 224, 179); stroke: rgb(28, 73, 66);" transform="matrix(0.000001, -1, 1, 0.000001, 1.401527, 1292.039429)"/>
    </clipPath>
    <clipPath id="clip-0">
      <rect width="1080" height="1080" style="fill: rgb(67, 224, 179); stroke: rgb(28, 73, 66);" transform="matrix(1, 0.000001, -0.000001, 1, 1.691571, -0.413292)"/>
    </clipPath>
  </defs>
  <rect width="1080" height="1080" style="fill: rgb(67, 224, 179); stroke: rgb(28, 73, 66); transform-origin: 540px 540px;" transform="matrix(1, 0.000001, -0.000001, 1, 0.00054000007, 0.000540000099)"/>
  <rect x="110" y="110" width="860" height="860" style="fill: rgba(216, 216, 216, 0); stroke: rgb(28, 73, 66);"/>
  <path d="M -261.45 537.631 Q -261.45 525.477 -255.963 515.86 Q -250.476 506.243 -240.977 500.874 Q -231.478 495.505 -219.678 495.505 Q -205.872 495.505 -195.488 502.585 Q -185.104 509.665 -180.974 522.173 L -199.972 522.173 Q -202.804 516.273 -207.937 513.323 Q -213.07 510.373 -219.796 510.373 Q -226.994 510.373 -232.599 513.736 Q -238.204 517.099 -241.331 523.235 Q -244.458 529.371 -244.458 537.631 Q -244.458 545.773 -241.331 551.968 Q -238.204 558.163 -232.599 561.526 Q -226.994 564.889 -219.796 564.889 Q -213.07 564.889 -207.937 561.88 Q -202.804 558.871 -199.972 552.971 L -180.974 552.971 Q -185.104 565.597 -195.429 572.618 Q -205.754 579.639 -219.678 579.639 Q -231.478 579.639 -240.977 574.27 Q -250.476 568.901 -255.963 559.343 Q -261.45 549.785 -261.45 537.631 Z M -116.325 563.237 L -149.129 563.237 L -154.557 578.931 L -171.903 578.931 L -142.285 496.449 L -123.051 496.449 L -93.433 578.931 L -110.897 578.931 Z M -120.809 550.021 L -132.727 515.565 L -144.645 550.021 Z M -65.809 565.833 L -38.669 565.833 L -38.669 578.931 L -82.329 578.931 L -82.329 496.567 L -65.809 496.567 Z M 10.059 579.757 Q -1.505 579.757 -11.181 574.329 Q -20.857 568.901 -26.521 559.284 Q -32.185 549.667 -32.185 537.513 Q -32.185 525.477 -26.521 515.86 Q -20.857 506.243 -11.181 500.815 Q -1.505 495.387 10.059 495.387 Q 21.741 495.387 31.358 500.815 Q 40.975 506.243 46.58 515.86 Q 52.185 525.477 52.185 537.513 Q 52.185 549.667 46.58 559.284 Q 40.975 568.901 31.299 574.329 Q 21.623 579.757 10.059 579.757 Z M 10.059 565.007 Q 17.493 565.007 23.157 561.644 Q 28.821 558.281 32.007 552.027 Q 35.193 545.773 35.193 537.513 Q 35.193 529.253 32.007 523.058 Q 28.821 516.863 23.157 513.559 Q 17.493 510.255 10.059 510.255 Q 2.625 510.255 -3.098 513.559 Q -8.821 516.863 -12.007 523.058 Q -15.193 529.253 -15.193 537.513 Q -15.193 545.773 -12.007 552.027 Q -8.821 558.281 -3.098 561.644 Q 2.625 565.007 10.059 565.007 Z M 106.932 578.931 L 88.76 546.835 L 80.972 546.835 L 80.972 578.931 L 64.452 578.931 L 64.452 496.567 L 95.368 496.567 Q 104.926 496.567 111.652 499.93 Q 118.378 503.293 121.741 509.016 Q 125.104 514.739 125.104 521.819 Q 125.104 529.961 120.384 536.51 Q 115.664 543.059 106.342 545.537 L 126.048 578.931 Z M 80.972 534.445 L 94.778 534.445 Q 101.504 534.445 104.808 531.2 Q 108.112 527.955 108.112 522.173 Q 108.112 516.509 104.808 513.382 Q 101.504 510.255 94.778 510.255 L 80.972 510.255 Z M 156.613 496.567 L 156.613 578.931 L 140.093 578.931 L 140.093 496.567 Z M 189.426 509.901 L 189.426 530.551 L 217.156 530.551 L 217.156 543.649 L 189.426 543.649 L 189.426 565.479 L 220.696 565.479 L 220.696 578.931 L 172.906 578.931 L 172.906 496.449 L 220.696 496.449 L 220.696 509.901 Z M 264.109 579.757 Q 255.495 579.757 248.592 576.807 Q 241.689 573.857 237.677 568.311 Q 233.665 562.765 233.547 555.213 L 251.247 555.213 Q 251.601 560.287 254.846 563.237 Q 258.091 566.187 263.755 566.187 Q 269.537 566.187 272.841 563.414 Q 276.145 560.641 276.145 556.157 Q 276.145 552.499 273.903 550.139 Q 271.661 547.779 268.298 546.422 Q 264.935 545.065 259.035 543.413 Q 251.011 541.053 245.996 538.752 Q 240.981 536.451 237.382 531.79 Q 233.783 527.129 233.783 519.341 Q 233.783 512.025 237.441 506.597 Q 241.099 501.169 247.707 498.278 Q 254.315 495.387 262.811 495.387 Q 275.555 495.387 283.52 501.582 Q 291.485 507.777 292.311 518.869 L 274.139 518.869 Q 273.903 514.621 270.54 511.848 Q 267.177 509.075 261.631 509.075 Q 256.793 509.075 253.902 511.553 Q 251.011 514.031 251.011 518.751 Q 251.011 522.055 253.194 524.238 Q 255.377 526.421 258.622 527.778 Q 261.867 529.135 267.767 530.905 Q 275.791 533.265 280.865 535.625 Q 285.939 537.985 289.597 542.705 Q 293.255 547.425 293.255 555.095 Q 293.255 561.703 289.833 567.367 Q 286.411 573.031 279.803 576.394 Q 273.195 579.757 264.109 579.757 Z" transform="matrix(0, -1, 1, 0, -537.505005, 556.912048)" style="fill: rgb(28, 73, 66); text-transform: uppercase; clip-path: url('#clip-2');"/>
  <path d="M 264.161 215.857 Q 264.161 203.703 269.648 194.086 Q 275.135 184.469 284.634 179.1 Q 294.133 173.731 305.933 173.731 Q 319.739 173.731 330.123 180.811 Q 340.507 187.891 344.637 200.399 L 325.639 200.399 Q 322.807 194.499 317.674 191.549 Q 312.541 188.599 305.815 188.599 Q 298.617 188.599 293.012 191.962 Q 287.407 195.325 284.28 201.461 Q 281.153 207.597 281.153 215.857 Q 281.153 223.999 284.28 230.194 Q 287.407 236.389 293.012 239.752 Q 298.617 243.115 305.815 243.115 Q 312.541 243.115 317.674 240.106 Q 322.807 237.097 325.639 231.197 L 344.637 231.197 Q 340.507 243.823 330.182 250.844 Q 319.857 257.865 305.933 257.865 Q 294.133 257.865 284.634 252.496 Q 275.135 247.127 269.648 237.569 Q 264.161 228.011 264.161 215.857 Z M 409.286 241.463 L 376.482 241.463 L 371.054 257.157 L 353.708 257.157 L 383.326 174.675 L 402.56 174.675 L 432.178 257.157 L 414.714 257.157 Z M 404.802 228.247 L 392.884 193.791 L 380.966 228.247 Z M 459.802 244.059 L 486.942 244.059 L 486.942 257.157 L 443.282 257.157 L 443.282 174.793 L 459.802 174.793 Z M 535.671 257.983 Q 524.107 257.983 514.431 252.555 Q 504.755 247.127 499.091 237.51 Q 493.427 227.893 493.427 215.739 Q 493.427 203.703 499.091 194.086 Q 504.755 184.469 514.431 179.041 Q 524.107 173.613 535.671 173.613 Q 547.353 173.613 556.97 179.041 Q 566.587 184.469 572.192 194.086 Q 577.797 203.703 577.797 215.739 Q 577.797 227.893 572.192 237.51 Q 566.587 247.127 556.911 252.555 Q 547.235 257.983 535.671 257.983 Z M 535.671 243.233 Q 543.105 243.233 548.769 239.87 Q 554.433 236.507 557.619 230.253 Q 560.805 223.999 560.805 215.739 Q 560.805 207.479 557.619 201.284 Q 554.433 195.089 548.769 191.785 Q 543.105 188.481 535.671 188.481 Q 528.237 188.481 522.514 191.785 Q 516.791 195.089 513.605 201.284 Q 510.419 207.479 510.419 215.739 Q 510.419 223.999 513.605 230.253 Q 516.791 236.507 522.514 239.87 Q 528.237 243.233 535.671 243.233 Z M 632.544 257.157 L 614.372 225.061 L 606.584 225.061 L 606.584 257.157 L 590.064 257.157 L 590.064 174.793 L 620.98 174.793 Q 630.538 174.793 637.264 178.156 Q 643.99 181.519 647.353 187.242 Q 650.716 192.965 650.716 200.045 Q 650.716 208.187 645.996 214.736 Q 641.276 221.285 631.954 223.763 L 651.66 257.157 Z M 606.584 212.671 L 620.39 212.671 Q 627.116 212.671 630.42 209.426 Q 633.724 206.181 633.724 200.399 Q 633.724 194.735 630.42 191.608 Q 627.116 188.481 620.39 188.481 L 606.584 188.481 Z M 682.224 174.793 L 682.224 257.157 L 665.704 257.157 L 665.704 174.793 Z M 715.037 188.127 L 715.037 208.777 L 742.767 208.777 L 742.767 221.875 L 715.037 221.875 L 715.037 243.705 L 746.307 243.705 L 746.307 257.157 L 698.517 257.157 L 698.517 174.675 L 746.307 174.675 L 746.307 188.127 Z M 789.72 257.983 Q 781.106 257.983 774.203 255.033 Q 767.3 252.083 763.288 246.537 Q 759.276 240.991 759.158 233.439 L 776.858 233.439 Q 777.212 238.513 780.457 241.463 Q 783.702 244.413 789.366 244.413 Q 795.148 244.413 798.452 241.64 Q 801.756 238.867 801.756 234.383 Q 801.756 230.725 799.514 228.365 Q 797.272 226.005 793.909 224.648 Q 790.546 223.291 784.646 221.639 Q 776.622 219.279 771.607 216.978 Q 766.592 214.677 762.993 210.016 Q 759.394 205.355 759.394 197.567 Q 759.394 190.251 763.052 184.823 Q 766.71 179.395 773.318 176.504 Q 779.926 173.613 788.422 173.613 Q 801.166 173.613 809.131 179.808 Q 817.096 186.003 817.922 197.095 L 799.75 197.095 Q 799.514 192.847 796.151 190.074 Q 792.788 187.301 787.242 187.301 Q 782.404 187.301 779.513 189.779 Q 776.622 192.257 776.622 196.977 Q 776.622 200.281 778.805 202.464 Q 780.988 204.647 784.233 206.004 Q 787.478 207.361 793.378 209.131 Q 801.402 211.491 806.476 213.851 Q 811.55 216.211 815.208 220.931 Q 818.866 225.651 818.866 233.321 Q 818.866 239.929 815.444 245.593 Q 812.022 251.257 805.414 254.62 Q 798.806 257.983 789.72 257.983 Z" transform="matrix(0, 1, -1, 0, 1292.223511, -2.342331)" style="fill: rgb(28, 73, 66); text-transform: uppercase; clip-path: url('#clip-1');"/>
  <path d="M 261.638 2.126 Q 261.638 -10.028 267.125 -19.645 Q 272.612 -29.262 282.111 -34.631 Q 291.61 -40 303.41 -40 Q 317.216 -40 327.6 -32.92 Q 337.984 -25.84 342.114 -13.332 L 323.116 -13.332 Q 320.284 -19.232 315.151 -22.182 Q 310.018 -25.132 303.292 -25.132 Q 296.094 -25.132 290.489 -21.769 Q 284.884 -18.406 281.757 -12.27 Q 278.63 -6.134 278.63 2.126 Q 278.63 10.268 281.757 16.463 Q 284.884 22.658 290.489 26.021 Q 296.094 29.384 303.292 29.384 Q 310.018 29.384 315.151 26.375 Q 320.284 23.366 323.116 17.466 L 342.114 17.466 Q 337.984 30.092 327.659 37.113 Q 317.334 44.134 303.41 44.134 Q 291.61 44.134 282.111 38.765 Q 272.612 33.396 267.125 23.838 Q 261.638 14.28 261.638 2.126 Z M 406.763 27.732 L 373.959 27.732 L 368.531 43.426 L 351.185 43.426 L 380.803 -39.056 L 400.037 -39.056 L 429.655 43.426 L 412.191 43.426 Z M 402.279 14.516 L 390.361 -19.94 L 378.443 14.516 Z M 457.279 30.328 L 484.419 30.328 L 484.419 43.426 L 440.759 43.426 L 440.759 -38.938 L 457.279 -38.938 Z M 533.147 44.252 Q 521.583 44.252 511.907 38.824 Q 502.231 33.396 496.567 23.779 Q 490.903 14.162 490.903 2.008 Q 490.903 -10.028 496.567 -19.645 Q 502.231 -29.262 511.907 -34.69 Q 521.583 -40.118 533.147 -40.118 Q 544.829 -40.118 554.446 -34.69 Q 564.063 -29.262 569.668 -19.645 Q 575.273 -10.028 575.273 2.008 Q 575.273 14.162 569.668 23.779 Q 564.063 33.396 554.387 38.824 Q 544.711 44.252 533.147 44.252 Z M 533.147 29.502 Q 540.581 29.502 546.245 26.139 Q 551.909 22.776 555.095 16.522 Q 558.281 10.268 558.281 2.008 Q 558.281 -6.252 555.095 -12.447 Q 551.909 -18.642 546.245 -21.946 Q 540.581 -25.25 533.147 -25.25 Q 525.713 -25.25 519.99 -21.946 Q 514.267 -18.642 511.081 -12.447 Q 507.895 -6.252 507.895 2.008 Q 507.895 10.268 511.081 16.522 Q 514.267 22.776 519.99 26.139 Q 525.713 29.502 533.147 29.502 Z M 630.02 43.426 L 611.848 11.33 L 604.06 11.33 L 604.06 43.426 L 587.54 43.426 L 587.54 -38.938 L 618.456 -38.938 Q 628.014 -38.938 634.74 -35.575 Q 641.466 -32.212 644.829 -26.489 Q 648.192 -20.766 648.192 -13.686 Q 648.192 -5.544 643.472 1.005 Q 638.752 7.554 629.43 10.032 L 649.136 43.426 Z M 604.06 -1.06 L 617.866 -1.06 Q 624.592 -1.06 627.896 -4.305 Q 631.2 -7.55 631.2 -13.332 Q 631.2 -18.996 627.896 -22.123 Q 624.592 -25.25 617.866 -25.25 L 604.06 -25.25 Z M 679.701 -38.938 L 679.701 43.426 L 663.181 43.426 L 663.181 -38.938 Z M 712.514 -25.604 L 712.514 -4.954 L 740.244 -4.954 L 740.244 8.144 L 712.514 8.144 L 712.514 29.974 L 743.784 29.974 L 743.784 43.426 L 695.994 43.426 L 695.994 -39.056 L 743.784 -39.056 L 743.784 -25.604 Z M 787.197 44.252 Q 778.583 44.252 771.68 41.302 Q 764.777 38.352 760.765 32.806 Q 756.753 27.26 756.635 19.708 L 774.335 19.708 Q 774.689 24.782 777.934 27.732 Q 781.179 30.682 786.843 30.682 Q 792.625 30.682 795.929 27.909 Q 799.233 25.136 799.233 20.652 Q 799.233 16.994 796.991 14.634 Q 794.749 12.274 791.386 10.917 Q 788.023 9.56 782.123 7.908 Q 774.099 5.548 769.084 3.247 Q 764.069 0.946 760.47 -3.715 Q 756.871 -8.376 756.871 -16.164 Q 756.871 -23.48 760.529 -28.908 Q 764.187 -34.336 770.795 -37.227 Q 777.403 -40.118 785.899 -40.118 Q 798.643 -40.118 806.608 -33.923 Q 814.573 -27.728 815.399 -16.636 L 797.227 -16.636 Q 796.991 -20.884 793.628 -23.657 Q 790.265 -26.43 784.719 -26.43 Q 779.881 -26.43 776.99 -23.952 Q 774.099 -21.474 774.099 -16.754 Q 774.099 -13.45 776.282 -11.267 Q 778.465 -9.084 781.71 -7.727 Q 784.955 -6.37 790.855 -4.6 Q 798.879 -2.24 803.953 0.12 Q 809.027 2.48 812.685 7.2 Q 816.343 11.92 816.343 19.59 Q 816.343 26.198 812.921 31.862 Q 809.499 37.526 802.891 40.889 Q 796.283 44.252 787.197 44.252 Z" style="fill: rgb(28, 73, 66); text-transform: uppercase; clip-path: url('#clip-0');"/>
  <text style="fill: rgb(28, 73, 66); font-family: Poppins; font-size: 24px; font-weight: 600; white-space: pre;" x="20" y="1048.02" transform="matrix(1, 0, 0, 1, 0, 5.684341886080802e-14)">{address}</text>
  <path d="M 439.148 1023.305 L 446.449 1023.305 L 446.449 1042.02 L 439.148 1042.02 L 439.148 1035.106 L 435.257 1035.446 L 435.257 1042.02 L 427.968 1042.02 L 427.968 1023.305 L 435.257 1023.305 L 435.257 1030.067 L 439.148 1029.75 Z M 449.328 1023.305 L 462.816 1023.305 L 462.816 1028.696 L 456.617 1028.696 L 456.617 1030.231 L 462.793 1030.231 L 462.793 1034.825 L 456.617 1034.825 L 456.617 1036.594 L 463.226 1036.594 L 463.226 1042.02 L 449.328 1042.02 Z M 464.945 1042.02 L 474.25 1024.254 Q 474.73 1023.305 476.019 1022.989 Q 476.394 1022.895 476.945 1022.895 Q 477.496 1022.895 478.146 1023.206 Q 478.797 1023.516 479.172 1024.184 L 489.156 1042.02 L 479.652 1042.02 L 478.914 1040.168 L 473.851 1040.168 L 473.218 1042.02 Z M 474.425 1036.454 L 478.211 1036.454 L 476.418 1031.391 Z M 490.937 1023.305 L 498.226 1023.305 L 498.226 1036.383 L 504.519 1036.383 L 504.519 1042.02 L 490.937 1042.02 Z M 505.554 1023.305 L 523.273 1023.305 L 523.273 1029.375 L 518.058 1029.375 L 518.058 1042.02 L 510.769 1042.02 L 510.769 1029.375 L 505.554 1029.375 Z M 536.539 1023.305 L 543.839 1023.305 L 543.839 1042.02 L 536.539 1042.02 L 536.539 1035.106 L 532.648 1035.446 L 532.648 1042.02 L 525.359 1042.02 L 525.359 1023.305 L 532.648 1023.305 L 532.648 1030.067 L 536.539 1029.75 Z M 546.718 1023.305 Q 553.082 1023.012 555.859 1023.012 Q 561.027 1023.012 563.277 1024.184 Q 565.293 1025.239 565.293 1027.383 Q 565.293 1028.672 564.619 1029.545 Q 563.945 1030.418 562.562 1031.051 Q 564.297 1031.637 565.234 1032.715 Q 566.464 1034.133 566.464 1036.606 Q 566.464 1041.938 558.214 1042.243 Q 557.031 1042.29 556.375 1042.29 Q 555.718 1042.29 555.238 1042.278 Q 554.757 1042.266 554.142 1042.249 Q 553.527 1042.231 552.806 1042.213 Q 552.086 1042.196 551.347 1042.167 Q 550.609 1042.137 549.894 1042.114 Q 549.179 1042.09 548.558 1042.061 Q 547.937 1042.032 547.457 1042.014 Q 546.976 1041.997 546.718 1041.973 Z M 558.672 1034.743 Q 558.672 1033.758 557.511 1033.758 Q 556.632 1033.747 554.781 1034.778 Q 554.347 1035.012 554.043 1035.176 L 554.043 1038.129 Q 554.207 1038.071 554.353 1038.012 Q 554.5 1037.954 555.027 1037.754 Q 556.902 1037.051 557.582 1036.594 Q 558.683 1035.856 558.672 1034.743 Z M 554.043 1031.872 Q 556.035 1031.098 556.691 1030.641 Q 558.05 1029.727 558.05 1028.672 Q 558.05 1027.934 557.277 1027.723 Q 557.066 1027.665 556.832 1027.665 Q 556.597 1027.665 556.287 1027.747 Q 555.976 1027.829 555.672 1027.958 Q 555.203 1028.133 554.634 1028.467 Q 554.066 1028.801 554.043 1028.825 Z M 581.945 1030.418 Q 581.945 1028.438 580.047 1028.438 Q 579.226 1028.438 578.218 1029.469 Q 576.707 1031.028 576.109 1033.184 Q 575.922 1033.864 575.922 1034.438 Q 575.922 1036.383 577.89 1036.383 Q 578.675 1036.395 579.683 1035.34 Q 581.148 1033.793 581.757 1031.59 Q 581.945 1030.911 581.945 1030.418 Z M 578.746 1042.477 Q 574.586 1042.477 571.527 1039.782 Q 570.554 1038.926 569.839 1037.825 Q 568.316 1035.493 568.316 1032.604 Q 568.316 1029.715 569.722 1027.489 Q 571.129 1025.262 573.496 1024.02 Q 575.863 1022.778 578.4 1022.778 Q 580.937 1022.778 582.871 1023.458 Q 584.804 1024.137 586.24 1025.409 Q 587.675 1026.68 588.496 1028.52 Q 589.316 1030.36 589.316 1032.68 Q 589.316 1035.563 587.851 1037.807 Q 586.386 1040.051 583.949 1041.264 Q 581.511 1042.477 578.746 1042.477 Z M 600.773 1042.477 Q 591.457 1042.477 591.457 1034.555 L 591.457 1023.305 L 598.851 1023.305 L 598.851 1034.344 Q 598.851 1036.008 599.964 1036.512 Q 600.351 1036.688 600.89 1036.688 Q 602.414 1036.688 602.812 1035.235 Q 602.929 1034.801 602.929 1034.297 L 602.929 1023.305 L 609.41 1023.305 L 609.41 1034.555 Q 609.41 1042.477 600.773 1042.477 Z M 612.093 1023.305 L 613.992 1023.305 L 624.211 1030.594 L 624.211 1023.305 L 630.808 1023.305 L 630.808 1042.02 L 628.289 1042.02 L 618.668 1035.586 L 618.668 1042.02 L 612.093 1042.02 Z M 633.703 1023.305 Q 640.816 1022.778 642.99 1022.778 Q 645.164 1022.778 646.423 1023.182 Q 647.683 1023.586 648.679 1024.301 Q 650.613 1025.672 651.603 1027.946 Q 652.593 1030.219 652.593 1032.551 Q 652.593 1034.883 651.838 1036.624 Q 651.082 1038.364 649.746 1039.559 Q 647.015 1042.032 642.679 1042.02 L 633.703 1042.02 Z M 640.992 1029.247 L 640.992 1036.383 Q 641.613 1035.856 642.339 1035.34 Q 645.129 1033.336 645.129 1031.145 Q 645.129 1030.079 644.496 1029.17 Q 643.863 1028.262 642.849 1028.262 Q 641.836 1028.262 640.992 1029.247 Z" style="fill: rgb(28, 73, 66);"/>
  <text style="fill: rgb(28, 73, 66); font-family: Poppins; font-size: 24px; font-weight: 600; text-anchor: end; white-space: pre;" x="1060" y="1051.01" transform="matrix(1, 0, 0, 1, 0, 5.684341886080802e-14)">{date}</text>
  <text style="fill: rgb(28, 73, 66); font-family: Poppins; font-size: 118px; font-weight: 700; text-anchor: middle; white-space: pre;" x="540" y="529.464" transform="matrix(1, 0, 0, 1, 0, 5.684341886080802e-14)">{data}</text>
  <g transform="matrix(1, 0, 0, 1, 45.49455261230469, -20)">
    <title>center-calories</title>
    <path d="M 337.643 639.076 Q 337.643 633.364 340.303 628.828 Q 342.963 624.292 347.527 621.744 Q 352.091 619.196 357.523 619.196 Q 363.739 619.196 368.583 622.248 Q 373.427 625.3 375.611 630.9 L 367.939 630.9 Q 366.427 627.82 363.739 626.308 Q 361.051 624.796 357.523 624.796 Q 353.659 624.796 350.635 626.532 Q 347.611 628.268 345.903 631.516 Q 344.195 634.764 344.195 639.076 Q 344.195 643.388 345.903 646.636 Q 347.611 649.884 350.635 651.648 Q 353.659 653.412 357.523 653.412 Q 361.051 653.412 363.739 651.9 Q 366.427 650.388 367.939 647.308 L 375.611 647.308 Q 373.427 652.908 368.583 655.932 Q 363.739 658.956 357.523 658.956 Q 352.035 658.956 347.499 656.408 Q 342.963 653.86 340.303 649.324 Q 337.643 644.788 337.643 639.076 Z M 406.516 650.668 L 390.22 650.668 L 387.42 658.62 L 380.756 658.62 L 394.7 619.644 L 402.092 619.644 L 416.036 658.62 L 409.316 658.62 Z M 404.724 645.46 L 398.396 627.372 L 392.012 645.46 Z M 428.468 653.468 L 441.628 653.468 L 441.628 658.62 L 422.084 658.62 L 422.084 619.7 L 428.468 619.7 Z M 464.695 659.012 Q 459.263 659.012 454.699 656.464 Q 450.135 653.916 447.475 649.352 Q 444.815 644.788 444.815 639.076 Q 444.815 633.364 447.475 628.828 Q 450.135 624.292 454.699 621.744 Q 459.263 619.196 464.695 619.196 Q 470.183 619.196 474.747 621.744 Q 479.311 624.292 481.943 628.828 Q 484.575 633.364 484.575 639.076 Q 484.575 644.788 481.943 649.352 Q 479.311 653.916 474.747 656.464 Q 470.183 659.012 464.695 659.012 Z M 464.695 653.468 Q 468.559 653.468 471.583 651.704 Q 474.607 649.94 476.315 646.664 Q 478.023 643.388 478.023 639.076 Q 478.023 634.764 476.315 631.516 Q 474.607 628.268 471.583 626.532 Q 468.559 624.796 464.695 624.796 Q 460.831 624.796 457.807 626.532 Q 454.783 628.268 453.075 631.516 Q 451.367 634.764 451.367 639.076 Q 451.367 643.388 453.075 646.664 Q 454.783 649.94 457.807 651.704 Q 460.831 653.468 464.695 653.468 Z M 511.065 658.62 L 502.105 643.052 L 497.233 643.052 L 497.233 658.62 L 490.849 658.62 L 490.849 619.7 L 504.289 619.7 Q 508.769 619.7 511.877 621.268 Q 514.985 622.836 516.525 625.468 Q 518.065 628.1 518.065 631.348 Q 518.065 635.156 515.853 638.264 Q 513.641 641.372 509.049 642.492 L 518.681 658.62 Z M 497.233 637.956 L 504.289 637.956 Q 507.873 637.956 509.693 636.164 Q 511.513 634.372 511.513 631.348 Q 511.513 628.324 509.721 626.616 Q 507.929 624.908 504.289 624.908 L 497.233 624.908 Z M 532.624 619.7 L 532.624 658.62 L 526.24 658.62 L 526.24 619.7 Z M 547.405 624.852 L 547.405 636.276 L 560.845 636.276 L 560.845 641.484 L 547.405 641.484 L 547.405 653.412 L 562.525 653.412 L 562.525 658.62 L 541.021 658.62 L 541.021 619.644 L 562.525 619.644 L 562.525 624.852 Z M 583.189 659.012 Q 579.269 659.012 576.133 657.64 Q 572.997 656.268 571.205 653.748 Q 569.413 651.228 569.413 647.868 L 576.245 647.868 Q 576.469 650.388 578.233 652.012 Q 579.997 653.636 583.189 653.636 Q 586.493 653.636 588.341 652.04 Q 590.189 650.444 590.189 647.924 Q 590.189 645.964 589.041 644.732 Q 587.893 643.5 586.185 642.828 Q 584.477 642.156 581.453 641.372 Q 577.645 640.364 575.265 639.328 Q 572.885 638.292 571.205 636.108 Q 569.525 633.924 569.525 630.284 Q 569.525 626.924 571.205 624.404 Q 572.885 621.884 575.909 620.54 Q 578.933 619.196 582.909 619.196 Q 588.565 619.196 592.177 622.024 Q 595.789 624.852 596.181 629.78 L 589.125 629.78 Q 588.957 627.652 587.109 626.14 Q 585.261 624.628 582.237 624.628 Q 579.493 624.628 577.757 626.028 Q 576.021 627.428 576.021 630.06 Q 576.021 631.852 577.113 633 Q 578.205 634.148 579.885 634.82 Q 581.565 635.492 584.477 636.276 Q 588.341 637.34 590.777 638.404 Q 593.213 639.468 594.921 641.68 Q 596.629 643.892 596.629 647.588 Q 596.629 650.556 595.033 653.188 Q 593.437 655.82 590.385 657.416 Q 587.333 659.012 583.189 659.012 Z" style="fill: rgb(28, 73, 66); paint-order: fill; text-transform: uppercase;"/>
    <path d="M 636.604 659.475 C 639.073 659.172 641.433 658.484 643.719 657.536 C 645.425 656.827 647.028 655.944 648.402 654.688 C 648.764 654.357 649.099 654.005 649.412 653.572 C 649.502 653.447 649.388 653.277 649.238 653.318 C 648.751 653.449 648.306 653.539 647.848 653.548 C 647.138 653.559 646.956 653.255 647.27 652.613 C 647.477 652.193 647.808 651.909 648.192 651.648 C 651.597 649.323 653.3 646.075 653.431 641.97 C 653.529 638.885 652.808 635.972 651.631 633.152 C 651.336 632.447 651.022 631.749 650.6 631.077 C 650.515 630.943 650.309 630.993 650.297 631.152 C 650.225 632.12 649.849 632.933 649.117 633.76 C 648.58 634.369 647.728 634.366 647.185 633.751 C 646.849 633.368 646.66 632.911 646.54 632.424 C 646.173 630.932 646.126 629.415 646.239 627.894 C 646.342 626.487 646.299 625.098 645.878 623.737 C 645.035 621.013 643.42 618.762 641.542 616.679 C 639.151 614.024 636.4 611.784 633.457 609.771 C 633.324 609.68 633.197 609.567 633.037 609.499 C 632.932 609.452 632.814 609.536 632.814 609.651 C 632.814 609.727 632.814 609.798 632.814 609.869 C 632.811 611.872 632.833 613.877 632.799 615.88 C 632.778 617.127 632.702 618.379 632.225 619.561 C 631.543 621.246 630.329 621.782 628.643 621.119 C 628.401 621.023 628.28 621.066 628.117 621.257 C 627.237 622.294 626.621 623.479 626.151 624.74 C 624.951 627.968 624.507 631.336 624.531 634.751 C 624.539 635.822 624.138 636.396 623.275 636.814 C 623.194 636.853 623.117 636.9 623.036 636.941 C 621.907 637.498 620.903 637.239 620.208 636.193 C 619.612 635.298 619.343 634.28 619.167 633.236 C 619.061 632.608 618.99 631.973 618.91 631.339 C 618.892 631.2 618.716 631.146 618.624 631.254 C 618.603 631.279 618.585 631.303 618.564 631.326 C 617.512 632.598 616.644 633.982 615.973 635.491 C 614.882 637.943 614.446 640.499 614.856 643.156 C 615.318 646.149 616.747 648.682 618.734 650.924 C 619.153 651.397 619.584 651.857 619.994 652.339 C 620.139 652.507 620.263 652.724 620.146 652.961 C 620.026 653.208 619.783 653.191 619.555 653.197 C 619.175 653.208 618.808 653.134 618.44 653.052 C 617.948 652.944 617.487 652.76 617.013 652.491 C 616.875 652.412 616.717 652.559 616.786 652.702 C 616.786 652.703 616.787 652.704 616.787 652.706 C 616.846 652.827 616.911 652.946 616.983 653.062 C 617.729 654.256 618.809 655.091 619.988 655.808 C 622.341 657.236 624.919 658.098 627.559 658.798 C 628.174 658.961 628.793 659.106 629.411 659.258 C 629.415 659.259 629.418 659.259 629.423 659.261 C 629.588 659.286 633.103 659.854 636.604 659.475 Z" style="fill: rgb(28, 73, 66);"/>
  </g>
</svg>