<?xml version="1.0" encoding="utf-8"?>
<svg viewBox="0 0 1080 1080" xmlns="http://www.w3.org/2000/svg" xmlns:xlink="http://www.w3.org/1999/xlink" xmlns:bx="https://boxy-svg.com">
  <defs>
    <clipPath id="clip-2">
      <rect width="1080" height="1080" style="fill: rgb(67, 224, 179); stroke: rgb(28, 73, 66);" transform="matrix(-0.000001, 1, -1, -0.000001, 557.325317, 537.196594)"/>
    </clipPath>
    <clipPath id="clip-1">
      <rect width="1080" height="1080" style="fill: rgb(67, 224, 179); stroke: rgb(28, 73, 66);" transform="matrix(0.000001, -1, 1, 0.000001, 1.401527, 1292.039429)"/>
    </clipPath>
    <clipPath id="clip-0">
      <rect width="1080" height="1080" style="fill: rgb(67, 224, 179); stroke: rgb(28, 73, 66);" transform="matrix(1, 0.000001, -0.000001, 1, 1.691571, -0.413292)"/>
    </clipPath>
    <linearGradient id="gradient-3-0" gradientUnits="userSpaceOnUse" x1="120.257" y1="109.796" x2="120.257" y2="909.78" xlink:href="#gradient-3"/>
    <linearGradient id="gradient-3" bx:pinned="true">
      <stop offset="0" style="stop-color: rgb(28, 73, 66);"/>
      <stop offset="1" style="stop-color: rgb(67, 224, 179);"/>
    </linearGradient>
    <linearGradient id="gradient-3-1" gradientUnits="userSpaceOnUse" x1="120.257" y1="109.796" x2="120.257" y2="909.78" xlink:href="#gradient-3"/>
    <linearGradient id="gradient-3-2" gradientUnits="userSpaceOnUse" x1="959.245" y1="115.11" x2="959.245" y2="915.094" xlink:href="#gradient-3"/>
    <style bx:fonts="Rammetto One">@import url(https://fonts.googleapis.com/css2?family=Rammetto+One%3Aital%2Cwght%400%2C400&amp;display=swap);</style>
    <style bx:fonts="Poppins">@import url(https://fonts.googleapis.com/css2?family=Poppins%3Aital%2Cwght%400%2C100%3B0%2C200%3B0%2C300%3B0%2C400%3B0%2C500%3B0%2C600%3B0%2C700%3B0%2C800%3B0%2C900%3B1%2C100%3B1%2C200%3B1%2C300%3B1%2C400%3B1%2C500%3B1%2C600%3B1%2C700%3B1%2C800%3B1%2C900&amp;display=swap);</style>
  </defs>
  <rect width="1080" height="1080" style="fill: rgb(67, 224, 179); stroke: rgb(28, 73, 66); transform-origin: 540px 540px;" transform="matrix(1, 0.000001, -0.000001, 1, 1.691030997117, -0.412751990636)"/>
  <text style="fill: rgb(28, 73, 66); font-family: Poppins; font-size: 118px; font-weight: 600; text-anchor: middle; text-transform: uppercase; white-space: pre; clip-path: url('#clip-2'); transform-origin: 16.912px 540px;" transform="matrix(0, -1, 1, 0, -12.417003631592, 0.000049591064)" x="16.912" y="578.931">Calories</text>
  <text style="fill: rgb(28, 73, 66); font-family: Poppins; font-size: 118px; font-weight: 600; text-anchor: middle; text-transform: uppercase; white-space: pre; clip-path: url('#clip-1'); transform-origin: 491.361px 251.91px;" transform="matrix(0, 1, -1, 0, 550.4599609375, 237.636108398437)" x="542.523" y="257.157">Calories</text>
  <text style="fill: rgb(28, 73, 66); font-family: Poppins; font-size: 118px; font-weight: 600; text-anchor: middle; text-transform: uppercase; white-space: pre; clip-path: url('#clip-0');" x="540" y="43.426" transform="matrix(1, 0, 0, 1, 0, 5.684341886080802e-14)">Calories</text>
  <text style="fill: rgb(28, 73, 66); font-family: Poppins; font-size: 24px; font-weight: 600; white-space: pre;" x="20" y="1048.02" transform="matrix(1, 0, 0, 1, 0, 5.684341886080802e-14)">{address}</text>
  <text style="fill: rgb(28, 73, 66); font-family: 'Rammetto One'; font-size: 24px; font-weight: 700; white-space: pre;" x="426.527" y="1042.02" transform="matrix(1, 0, 0, 1, 0, 5.684341886080802e-14)">HEALTHBOUND</text>
  <text style="fill: rgb(28, 73, 66); font-family: Poppins; font-size: 24px; font-weight: 600; text-anchor: end; white-space: pre;" x="1060" y="1051.01" transform="matrix(1, 0, 0, 1, 0, 5.684341886080802e-14)">{date}</text>
  <text style="fill: rgb(28, 73, 66); font-family: Poppins; font-size: 118px; font-weight: 700; text-anchor: middle; white-space: pre;" x="540" y="529.464" transform="matrix(1, 0, 0, 1, 0, 5.684341886080802e-14)">{data}</text>
  <line style="fill: url('#gradient-3-0'); stroke: url('#gradient-3-1');" x1="122.786" y1="109.796" x2="117.727" y2="909.78" transform="matrix(1, 0, 0, 1, 0, 5.684341886080802e-14)"/>
  <line style="fill: rgb(216, 216, 216); stroke: rgb(0, 0, 0); transform-origin: 542.282px 111.965px;" x1="544.939" y1="-308.026" x2="539.626" y2="531.957" transform="matrix(0, 1, -1, 0, 0.000022888178, -0.000007629395)"/>
  <line style="fill: rgb(216, 216, 216); stroke: url('#gradient-3-2');" x1="961.775" y1="115.11" x2="956.715" y2="915.094" transform="matrix(1, 0, 0, 1, 0, 5.684341886080802e-14)"/>
  <g transform="matrix(1, 0, 0, 1, 45.49455642700195, 5.684341886080802e-14)">
    <text style="fill: rgb(28, 73, 66); font-family: Poppins; font-size: 56px; font-weight: 500; paint-order: fill; text-transform: uppercase; white-space: pre;" x="335.571" y="658.62">Calories</text>
    <path d="M 636.604 659.475 C 639.073 659.172 641.433 658.484 643.719 657.536 C 645.425 656.827 647.028 655.944 648.402 654.688 C 648.764 654.357 649.099 654.005 649.412 653.572 C 649.502 653.447 649.388 653.277 649.238 653.318 C 648.751 653.449 648.306 653.539 647.848 653.548 C 647.138 653.559 646.956 653.255 647.27 652.613 C 647.477 652.193 647.808 651.909 648.192 651.648 C 651.597 649.323 653.3 646.075 653.431 641.97 C 653.529 638.885 652.808 635.972 651.631 633.152 C 651.336 632.447 651.022 631.749 650.6 631.077 C 650.515 630.943 650.309 630.993 650.297 631.152 C 650.225 632.12 649.849 632.933 649.117 633.76 C 648.58 634.369 647.728 634.366 647.185 633.751 C 646.849 633.368 646.66 632.911 646.54 632.424 C 646.173 630.932 646.126 629.415 646.239 627.894 C 646.342 626.487 646.299 625.098 645.878 623.737 C 645.035 621.013 643.42 618.762 641.542 616.679 C 639.151 614.024 636.4 611.784 633.457 609.771 C 633.324 609.68 633.197 609.567 633.037 609.499 C 632.932 609.452 632.814 609.536 632.814 609.651 C 632.814 609.727 632.814 609.798 632.814 609.869 C 632.811 611.872 632.833 613.877 632.799 615.88 C 632.778 617.127 632.702 618.379 632.225 619.561 C 631.543 621.246 630.329 621.782 628.643 621.119 C 628.401 621.023 628.28 621.066 628.117 621.257 C 627.237 622.294 626.621 623.479 626.151 624.74 C 624.951 627.968 624.507 631.336 624.531 634.751 C 624.539 635.822 624.138 636.396 623.275 636.814 C 623.194 636.853 623.117 636.9 623.036 636.941 C 621.907 637.498 620.903 637.239 620.208 636.193 C 619.612 635.298 619.343 634.28 619.167 633.236 C 619.061 632.608 618.99 631.973 618.91 631.339 C 618.892 631.2 618.716 631.146 618.624 631.254 C 618.603 631.279 618.585 631.303 618.564 631.326 C 617.512 632.598 616.644 633.982 615.973 635.491 C 614.882 637.943 614.446 640.499 614.856 643.156 C 615.318 646.149 616.747 648.682 618.734 650.924 C 619.153 651.397 619.584 651.857 619.994 652.339 C 620.139 652.507 620.263 652.724 620.146 652.961 C 620.026 653.208 619.783 653.191 619.555 653.197 C 619.175 653.208 618.808 653.134 618.44 653.052 C 617.948 652.944 617.487 652.76 617.013 652.491 C 616.875 652.412 616.717 652.559 616.786 652.702 C 616.786 652.703 616.787 652.704 616.787 652.706 C 616.846 652.827 616.911 652.946 616.983 653.062 C 617.729 654.256 618.809 655.091 619.988 655.808 C 622.341 657.236 624.919 658.098 627.559 658.798 C 628.174 658.961 628.793 659.106 629.411 659.258 C 629.415 659.259 629.418 659.259 629.423 659.261 C 629.588 659.286 633.103 659.854 636.604 659.475 Z" style="fill: rgb(28, 73, 66);"/>
  </g>
</svg>